<svg width="220" height="51" viewBox="0 0 220 51" fill="none" xmlns="http://www.w3.org/2000/svg">
<rect width="220" height="51" fill="#F2F2F4"/>
<path d="M98.304 30.4603C97.5013 30.4416 96.932 30.269 96.596 29.9423C96.26 29.6156 96.092 29.107 96.092 28.4163V19.6803L97.394 19.4563V28.2063C97.394 28.421 97.4127 28.5983 97.45 28.7383C97.4873 28.8783 97.548 28.9903 97.632 29.0743C97.716 29.1583 97.828 29.2236 97.968 29.2703C98.108 29.3076 98.2807 29.3403 98.486 29.3683L98.304 30.4603ZM106.374 26.6803C106.374 27.259 106.29 27.7816 106.122 28.2483C105.954 28.715 105.716 29.1163 105.408 29.4523C105.109 29.7883 104.75 30.0496 104.33 30.2363C103.91 30.4136 103.453 30.5023 102.958 30.5023C102.463 30.5023 102.006 30.4136 101.586 30.2363C101.166 30.0496 100.802 29.7883 100.494 29.4523C100.195 29.1163 99.9621 28.715 99.7941 28.2483C99.6261 27.7816 99.5421 27.259 99.5421 26.6803C99.5421 26.111 99.6261 25.593 99.7941 25.1263C99.9621 24.6503 100.195 24.2443 100.494 23.9083C100.802 23.5723 101.166 23.3156 101.586 23.1383C102.006 22.9516 102.463 22.8583 102.958 22.8583C103.453 22.8583 103.91 22.9516 104.33 23.1383C104.75 23.3156 105.109 23.5723 105.408 23.9083C105.716 24.2443 105.954 24.6503 106.122 25.1263C106.29 25.593 106.374 26.111 106.374 26.6803ZM105.016 26.6803C105.016 25.859 104.829 25.2103 104.456 24.7343C104.092 24.249 103.593 24.0063 102.958 24.0063C102.323 24.0063 101.819 24.249 101.446 24.7343C101.082 25.2103 100.9 25.859 100.9 26.6803C100.9 27.5016 101.082 28.155 101.446 28.6403C101.819 29.1163 102.323 29.3543 102.958 29.3543C103.593 29.3543 104.092 29.1163 104.456 28.6403C104.829 28.155 105.016 27.5016 105.016 26.6803ZM112.77 29.5923C112.658 29.667 112.439 29.765 112.112 29.8863C111.795 29.9983 111.421 30.0543 110.992 30.0543C110.553 30.0543 110.138 29.9843 109.746 29.8443C109.363 29.7043 109.027 29.4896 108.738 29.2003C108.449 28.9016 108.22 28.533 108.052 28.0943C107.884 27.6556 107.8 27.133 107.8 26.5263C107.8 25.9943 107.879 25.509 108.038 25.0703C108.197 24.6223 108.425 24.2396 108.724 23.9223C109.032 23.5956 109.405 23.3436 109.844 23.1663C110.283 22.9796 110.777 22.8863 111.328 22.8863C111.935 22.8863 112.462 22.933 112.91 23.0263C113.367 23.1103 113.75 23.1896 114.058 23.2643V29.7603C114.058 30.8803 113.769 31.6923 113.19 32.1963C112.611 32.7003 111.734 32.9523 110.558 32.9523C110.101 32.9523 109.667 32.915 109.256 32.8403C108.855 32.7656 108.505 32.677 108.206 32.5743L108.444 31.4403C108.705 31.543 109.023 31.6316 109.396 31.7063C109.779 31.7903 110.175 31.8323 110.586 31.8323C111.361 31.8323 111.916 31.6783 112.252 31.3703C112.597 31.0623 112.77 30.5723 112.77 29.9003V29.5923ZM112.756 24.1883C112.625 24.151 112.448 24.1183 112.224 24.0903C112.009 24.053 111.715 24.0343 111.342 24.0343C110.642 24.0343 110.101 24.263 109.718 24.7203C109.345 25.1776 109.158 25.7843 109.158 26.5403C109.158 26.9603 109.209 27.3196 109.312 27.6183C109.424 27.917 109.569 28.1643 109.746 28.3603C109.933 28.5563 110.143 28.701 110.376 28.7943C110.619 28.8876 110.866 28.9343 111.118 28.9343C111.463 28.9343 111.781 28.8876 112.07 28.7943C112.359 28.6916 112.588 28.575 112.756 28.4443V24.1883ZM122.726 26.6803C122.726 27.259 122.642 27.7816 122.474 28.2483C122.306 28.715 122.068 29.1163 121.76 29.4523C121.461 29.7883 121.102 30.0496 120.682 30.2363C120.262 30.4136 119.804 30.5023 119.31 30.5023C118.815 30.5023 118.358 30.4136 117.938 30.2363C117.518 30.0496 117.154 29.7883 116.846 29.4523C116.547 29.1163 116.314 28.715 116.146 28.2483C115.978 27.7816 115.894 27.259 115.894 26.6803C115.894 26.111 115.978 25.593 116.146 25.1263C116.314 24.6503 116.547 24.2443 116.846 23.9083C117.154 23.5723 117.518 23.3156 117.938 23.1383C118.358 22.9516 118.815 22.8583 119.31 22.8583C119.804 22.8583 120.262 22.9516 120.682 23.1383C121.102 23.3156 121.461 23.5723 121.76 23.9083C122.068 24.2443 122.306 24.6503 122.474 25.1263C122.642 25.593 122.726 26.111 122.726 26.6803ZM121.368 26.6803C121.368 25.859 121.181 25.2103 120.808 24.7343C120.444 24.249 119.944 24.0063 119.31 24.0063C118.675 24.0063 118.171 24.249 117.798 24.7343C117.434 25.2103 117.252 25.859 117.252 26.6803C117.252 27.5016 117.434 28.155 117.798 28.6403C118.171 29.1163 118.675 29.3543 119.31 29.3543C119.944 29.3543 120.444 29.1163 120.808 28.6403C121.181 28.155 121.368 27.5016 121.368 26.6803Z" fill="#B8B8BA"/>
</svg>
